<svg width="1024" height="1024" viewBox="0 0 120 120" fill="none" xmlns="http://www.w3.org/2000/svg">
  <rect width="120" height="120" rx="26" fill="#c8ecf8"/>
  <rect x="8" y="12" width="104" height="102" rx="18" fill="rgba(135,206,235,0.18)"/>
  <rect x="6" y="8" width="108" height="104" rx="18" fill="white"/>
  <rect x="6" y="8" width="108" height="104" rx="18" stroke="rgba(135,206,235,0.5)" stroke-width="1.5"/>
  <rect x="6" y="8" width="108" height="28" rx="18" fill="rgba(224,244,255,0.7)"/>
  <rect x="6" y="24" width="108" height="12" fill="rgba(224,244,255,0.7)"/>
  <circle cx="28" cy="22" r="5" fill="#87CEEB" opacity="0.9"/>
  <circle cx="44" cy="22" r="3.5" fill="#b3dff7" opacity="0.8"/>
  <circle cx="57" cy="22" r="3.5" fill="#b3dff7" opacity="0.8"/>
  <circle cx="90" cy="22" r="7" fill="rgba(135,206,235,0.2)" stroke="#87CEEB" stroke-width="1.5"/>
  <path d="M90 17.5 V22" stroke="#87CEEB" stroke-width="2" stroke-linecap="round"/>
  <path d="M86.8 19.2 A5 5 0 1 0 93.2 19.2" stroke="#87CEEB" stroke-width="1.8" stroke-linecap="round" fill="none"/>
  <circle cx="60" cy="72" r="36" fill="rgba(224,244,255,0.5)" stroke="rgba(135,206,235,0.4)" stroke-width="2"/>
  <circle cx="60" cy="72" r="30" fill="white" stroke="rgba(135,206,235,0.3)" stroke-width="1.2"/>
  <circle cx="60" cy="72" r="25" fill="rgba(219,242,253,0.6)"/>
  <g opacity="0.55">
    <rect x="58.5" y="49" width="3" height="10" rx="1.5" fill="#87CEEB" transform="rotate(0 60 72)"/>
    <rect x="58.5" y="49" width="3" height="10" rx="1.5" fill="#87CEEB" transform="rotate(60 60 72)"/>
    <rect x="58.5" y="49" width="3" height="10" rx="1.5" fill="#87CEEB" transform="rotate(120 60 72)"/>
    <rect x="58.5" y="49" width="3" height="10" rx="1.5" fill="#87CEEB" transform="rotate(180 60 72)"/>
    <rect x="58.5" y="49" width="3" height="10" rx="1.5" fill="#87CEEB" transform="rotate(240 60 72)"/>
    <rect x="58.5" y="49" width="3" height="10" rx="1.5" fill="#87CEEB" transform="rotate(300 60 72)"/>
  </g>
  <circle cx="60" cy="72" r="6" fill="white" stroke="rgba(135,206,235,0.6)" stroke-width="1.5"/>
  <circle cx="60" cy="72" r="2.5" fill="#87CEEB" opacity="0.7"/>
  <rect x="80" y="70" width="9" height="4" rx="2" fill="rgba(135,206,235,0.5)" stroke="rgba(135,206,235,0.6)" stroke-width="1"/>
  <circle cx="48" cy="84" r="3.5" fill="rgba(255,255,255,0.7)" stroke="rgba(135,206,235,0.35)" stroke-width="1"/>
  <circle cx="57" cy="88" r="2.5" fill="rgba(255,255,255,0.7)" stroke="rgba(135,206,235,0.35)" stroke-width="1"/>
  <circle cx="66" cy="86" r="3" fill="rgba(255,255,255,0.7)" stroke="rgba(135,206,235,0.35)" stroke-width="1"/>
  <rect x="24" y="108" width="16" height="6" rx="3" fill="rgba(135,206,235,0.35)"/>
  <rect x="80" y="108" width="16" height="6" rx="3" fill="rgba(135,206,235,0.35)"/>
</svg>
